<svg width="48" height="48" viewBox="0 0 48 48" fill="none" xmlns="http://www.w3.org/2000/svg">
<path d="M36 0C42.6274 0 48 5.37258 48 12V36C48 42.6274 42.6274 48 36 48H12C5.37258 48 0 42.6274 0 36V12C0 5.37258 5.37258 0 12 0H36Z" fill="url(#paint0_linear_90_3206)"/>
<path d="M36 0C42.6274 0 48 5.37258 48 12V36C48 42.6274 42.6274 48 36 48H12C5.37258 48 0 42.6274 0 36V12C0 5.37258 5.37258 0 12 0H36Z" stroke="#E5E7EB"/>
<path d="M34 38H14V10H34V38Z" stroke="#E5E7EB"/>
<path d="M34 33.5H14V13.5H34V33.5Z" stroke="#E5E7EB"/>
<path d="M16.5 16C16.5 15.3086 15.9414 14.75 15.25 14.75C14.5586 14.75 14 15.3086 14 16V29.125C14 30.8516 15.3984 32.25 17.125 32.25H32.75C33.4414 32.25 34 31.6914 34 31C34 30.3086 33.4414 29.75 32.75 29.75H17.125C16.7812 29.75 16.5 29.4688 16.5 29.125V16ZM32.3828 19.3828C32.8711 18.8945 32.8711 18.1016 32.3828 17.6133C31.8945 17.125 31.1016 17.125 30.6133 17.6133L26.5 21.7305L24.2578 19.4883C23.7695 19 22.9766 19 22.4883 19.4883L18.1133 23.8633C17.625 24.3516 17.625 25.1445 18.1133 25.6328C18.6016 26.1211 19.3945 26.1211 19.8828 25.6328L23.375 22.1445L25.6172 24.3867C26.1055 24.875 26.8984 24.875 27.3867 24.3867L32.3867 19.3867L32.3828 19.3828Z" fill="#2563EB"/>
<defs>
<linearGradient id="paint0_linear_90_3206" x1="-16.9706" y1="16.9706" x2="16.9706" y2="50.9117" gradientUnits="userSpaceOnUse">
<stop stop-color="#2563EB" stop-opacity="0.1"/>
<stop offset="1" stop-color="#DBEAFE"/>
</linearGradient>
</defs>
</svg>
