<svg width="48" height="48" viewBox="0 0 48 48" fill="none" xmlns="http://www.w3.org/2000/svg">
<path d="M36 0C42.6274 0 48 5.37258 48 12V36C48 42.6274 42.6274 48 36 48H12C5.37258 48 0 42.6274 0 36V12C0 5.37258 5.37258 0 12 0H36Z" fill="url(#paint0_linear_90_3184)"/>
<path d="M36 0C42.6274 0 48 5.37258 48 12V36C48 42.6274 42.6274 48 36 48H12C5.37258 48 0 42.6274 0 36V12C0 5.37258 5.37258 0 12 0H36Z" stroke="#E5E7EB"/>
<path d="M36.5 38H11.5V10H36.5V38Z" stroke="#E5E7EB"/>
<g clip-path="url(#clip0_90_3184)">
<path d="M17.125 19.75C17.9538 19.75 18.7487 19.4208 19.3347 18.8347C19.9208 18.2487 20.25 17.4538 20.25 16.625C20.25 15.7962 19.9208 15.0013 19.3347 14.4153C18.7487 13.8292 17.9538 13.5 17.125 13.5C16.2962 13.5 15.5013 13.8292 14.9153 14.4153C14.3292 15.0013 14 15.7962 14 16.625C14 17.4538 14.3292 18.2487 14.9153 18.8347C15.5013 19.4208 16.2962 19.75 17.125 19.75ZM31.5 19.75C32.3288 19.75 33.1237 19.4208 33.7097 18.8347C34.2958 18.2487 34.625 17.4538 34.625 16.625C34.625 15.7962 34.2958 15.0013 33.7097 14.4153C33.1237 13.8292 32.3288 13.5 31.5 13.5C30.6712 13.5 29.8763 13.8292 29.2903 14.4153C28.7042 15.0013 28.375 15.7962 28.375 16.625C28.375 17.4538 28.7042 18.2487 29.2903 18.8347C29.8763 19.4208 30.6712 19.75 31.5 19.75ZM11.5 25.168C11.5 25.625 11.875 26 12.332 26H20.668C20.6758 26 20.6836 26 20.6953 26C19.6562 25.082 19.0039 23.7422 19.0039 22.25C19.0039 21.9531 19.0312 21.6641 19.0781 21.3789C18.5469 21.1328 17.957 21 17.3359 21H15.668C13.3672 21 11.5 22.8672 11.5 25.168ZM24 26C24.9375 26 25.793 25.6562 26.4492 25.0898C26.5469 24.9453 26.6523 24.8047 26.7617 24.6719C26.8672 24.543 26.9844 24.4336 27.1133 24.3477C27.5156 23.7461 27.75 23.0273 27.75 22.25C27.75 20.1797 26.0703 18.5 24 18.5C21.9297 18.5 20.25 20.1797 20.25 22.25C20.25 24.3203 21.9297 26 24 26ZM26.5547 28.3516C26.1523 28.1211 25.8477 27.7188 25.7422 27.25H21.707C18.832 27.25 16.5 29.582 16.5 32.457C16.5 33.0312 16.9648 33.5 17.543 33.5H29.2812C29.1992 33.2969 29.1562 33.0742 29.1562 32.8594V32.7422C29.1055 32.7148 29.0508 32.6836 29 32.6523L28.8984 32.7109C28.2422 33.0898 27.3164 33.0234 26.7617 32.332C26.5859 32.1133 26.4258 31.8828 26.2773 31.6445L26.2734 31.6367L26.2695 31.6289L26.1758 31.4688L26.1719 31.4609L26.168 31.4531C26.0352 31.2109 25.918 30.9609 25.8164 30.6992C25.4961 29.8711 25.9023 29.0352 26.5586 28.6562L26.6641 28.5977C26.6641 28.5664 26.6641 28.5391 26.6641 28.5078C26.6641 28.4766 26.6641 28.4492 26.6641 28.418L26.5586 28.3594L26.5547 28.3516ZM32.332 21H30.668C30.0469 21 29.457 21.1367 28.9258 21.3789C28.9766 21.6602 29 21.9531 29 22.25C29 22.9297 28.8633 23.5742 28.6211 24.1641C28.7188 24.1992 28.8125 24.2422 28.8984 24.293L29 24.3516C29.0508 24.3203 29.1016 24.2891 29.1562 24.2617V24.1445C29.1562 23.3867 29.6758 22.6172 30.5547 22.4805C30.8633 22.4336 31.1797 22.4062 31.5 22.4062C31.8203 22.4062 32.1367 22.4297 32.4453 22.4805C33.3242 22.6172 33.8438 23.3867 33.8438 24.1445V24.2617C33.8945 24.2891 33.9492 24.3203 34 24.3516L34.1016 24.293C34.7578 23.9141 35.6836 23.9805 36.2383 24.6719C36.3281 24.7812 36.4141 24.8984 36.4961 25.0117C36.4141 22.7813 34.582 21 32.332 21ZM35.8984 27.4023C36.1445 27.2617 36.2695 26.9688 36.1641 26.6992C36.082 26.4844 35.9844 26.2773 35.875 26.0781L35.7852 25.9219C35.6641 25.7227 35.5312 25.5352 35.3867 25.3555C35.207 25.1328 34.8906 25.0938 34.6445 25.2383L33.9375 25.6484C33.5898 25.3516 33.1914 25.1172 32.75 24.9609V24.1406C32.75 23.8555 32.5586 23.6016 32.2773 23.5586C32.0234 23.5195 31.7656 23.5 31.5 23.5C31.2344 23.5 30.9766 23.5195 30.7227 23.5586C30.4414 23.6016 30.25 23.8555 30.25 24.1406V24.9609C29.8125 25.1172 29.4102 25.3516 29.0625 25.6484L28.3516 25.2383C28.1055 25.0977 27.7891 25.1367 27.6094 25.3555C27.4648 25.5352 27.332 25.7266 27.2109 25.9258L27.1211 26.0781C27.0117 26.2773 26.9141 26.4844 26.832 26.6992C26.7305 26.9648 26.8516 27.2578 27.0977 27.3984L27.8086 27.8086C27.7695 28.0312 27.7461 28.2617 27.7461 28.4961C27.7461 28.7305 27.7695 28.9609 27.8086 29.1797L27.0977 29.5898C26.8516 29.7305 26.7266 30.0234 26.832 30.2891C26.9141 30.5039 27.0117 30.707 27.1211 30.9062L27.2148 31.0664C27.332 31.2656 27.4648 31.4531 27.6094 31.6328C27.7891 31.8555 28.1055 31.8945 28.3516 31.75L29.0625 31.3516C29.4102 31.6484 29.8125 31.8828 30.25 32.0391V32.8594C30.25 33.1445 30.4414 33.3984 30.7227 33.4414C30.9766 33.4805 31.2344 33.5 31.5 33.5C31.7656 33.5 32.0234 33.4805 32.2773 33.4414C32.5586 33.3984 32.75 33.1445 32.75 32.8594V32.0391C33.1875 31.8828 33.5898 31.6484 33.9375 31.3516L34.6484 31.7617C34.8945 31.9023 35.2109 31.8633 35.3906 31.6445C35.5352 31.4648 35.668 31.2773 35.7852 31.0781L35.8789 30.9141C35.9883 30.7148 36.0859 30.5117 36.168 30.2969C36.2695 30.0312 36.1484 29.7383 35.9023 29.5977L35.1914 29.1875C35.2305 28.9648 35.2539 28.7344 35.2539 28.5039C35.2539 28.2734 35.2305 28.0391 35.1914 27.8164L35.9023 27.4062L35.8984 27.4023ZM29.9375 28.5C29.9375 28.0856 30.1021 27.6882 30.3951 27.3951C30.6882 27.1021 31.0856 26.9375 31.5 26.9375C31.9144 26.9375 32.3118 27.1021 32.6049 27.3951C32.8979 27.6882 33.0625 28.0856 33.0625 28.5C33.0625 28.9144 32.8979 29.3118 32.6049 29.6049C32.3118 29.8979 31.9144 30.0625 31.5 30.0625C31.0856 30.0625 30.6882 29.8979 30.3951 29.6049C30.1021 29.3118 29.9375 28.9144 29.9375 28.5Z" fill="#2563EB"/>
</g>
<defs>
<linearGradient id="paint0_linear_90_3184" x1="-16.9706" y1="16.9706" x2="16.9706" y2="50.9117" gradientUnits="userSpaceOnUse">
<stop stop-color="#2563EB" stop-opacity="0.1"/>
<stop offset="1" stop-color="#DBEAFE"/>
</linearGradient>
<clipPath id="clip0_90_3184">
<path d="M11.5 13.5H36.5V33.5H11.5V13.5Z" fill="white"/>
</clipPath>
</defs>
</svg>
