<svg width="48" height="48" viewBox="0 0 48 48" fill="none" xmlns="http://www.w3.org/2000/svg">
<path d="M36 0C42.6274 0 48 5.37258 48 12V36C48 42.6274 42.6274 48 36 48H12C5.37258 48 0 42.6274 0 36V12C0 5.37258 5.37258 0 12 0H36Z" fill="url(#paint0_linear_90_3250)"/>
<path d="M36 0C42.6274 0 48 5.37258 48 12V36C48 42.6274 42.6274 48 36 48H12C5.37258 48 0 42.6274 0 36V12C0 5.37258 5.37258 0 12 0H36Z" stroke="#E5E7EB"/>
<path d="M31.5 38H16.5V10H31.5V38Z" stroke="#E5E7EB"/>
<g clip-path="url(#clip0_90_3250)">
<path d="M19 13.5C17.6211 13.5 16.5 14.6211 16.5 16V31C16.5 32.3789 17.6211 33.5 19 33.5H29C30.3789 33.5 31.5 32.3789 31.5 31V19.75H26.5C25.8086 19.75 25.25 19.1914 25.25 18.5V13.5H19ZM26.5 13.5V18.5H31.5L26.5 13.5ZM20.875 23.5H27.125C27.4688 23.5 27.75 23.7812 27.75 24.125C27.75 24.4688 27.4688 24.75 27.125 24.75H20.875C20.5312 24.75 20.25 24.4688 20.25 24.125C20.25 23.7812 20.5312 23.5 20.875 23.5ZM20.875 26H27.125C27.4688 26 27.75 26.2812 27.75 26.625C27.75 26.9688 27.4688 27.25 27.125 27.25H20.875C20.5312 27.25 20.25 26.9688 20.25 26.625C20.25 26.2812 20.5312 26 20.875 26ZM20.875 28.5H27.125C27.4688 28.5 27.75 28.7812 27.75 29.125C27.75 29.4688 27.4688 29.75 27.125 29.75H20.875C20.5312 29.75 20.25 29.4688 20.25 29.125C20.25 28.7812 20.5312 28.5 20.875 28.5Z" fill="#2563EB"/>
</g>
<defs>
<linearGradient id="paint0_linear_90_3250" x1="-16.9706" y1="16.9706" x2="16.9706" y2="50.9117" gradientUnits="userSpaceOnUse">
<stop stop-color="#2563EB" stop-opacity="0.1"/>
<stop offset="1" stop-color="#DBEAFE"/>
</linearGradient>
<clipPath id="clip0_90_3250">
<path d="M16.5 13.5H31.5V33.5H16.5V13.5Z" fill="white"/>
</clipPath>
</defs>
</svg>
