<svg width="48" height="48" viewBox="0 0 48 48" fill="none" xmlns="http://www.w3.org/2000/svg">
<path d="M36 0C42.6274 0 48 5.37258 48 12V36C48 42.6274 42.6274 48 36 48H12C5.37258 48 0 42.6274 0 36V12C0 5.37258 5.37258 0 12 0H36Z" fill="url(#paint0_linear_90_3272)"/>
<path d="M36 0C42.6274 0 48 5.37258 48 12V36C48 42.6274 42.6274 48 36 48H12C5.37258 48 0 42.6274 0 36V12C0 5.37258 5.37258 0 12 0H36Z" stroke="#E5E7EB"/>
<path d="M31.5 38H16.5V10H31.5V38Z" stroke="#E5E7EB"/>
<g clip-path="url(#clip0_90_3272)">
<path d="M24.9258 33C26.9297 30.4922 31.5 24.4141 31.5 21C31.5 16.8594 28.1406 13.5 24 13.5C19.8594 13.5 16.5 16.8594 16.5 21C16.5 24.4141 21.0703 30.4922 23.0742 33C23.5547 33.5977 24.4453 33.5977 24.9258 33ZM24 18.5C24.663 18.5 25.2989 18.7634 25.7678 19.2322C26.2366 19.7011 26.5 20.337 26.5 21C26.5 21.663 26.2366 22.2989 25.7678 22.7678C25.2989 23.2366 24.663 23.5 24 23.5C23.337 23.5 22.7011 23.2366 22.2322 22.7678C21.7634 22.2989 21.5 21.663 21.5 21C21.5 20.337 21.7634 19.7011 22.2322 19.2322C22.7011 18.7634 23.337 18.5 24 18.5Z" fill="#2563EB"/>
</g>
<defs>
<linearGradient id="paint0_linear_90_3272" x1="-16.9706" y1="16.9706" x2="16.9706" y2="50.9117" gradientUnits="userSpaceOnUse">
<stop stop-color="#2563EB" stop-opacity="0.1"/>
<stop offset="1" stop-color="#DBEAFE"/>
</linearGradient>
<clipPath id="clip0_90_3272">
<path d="M16.5 13.5H31.5V33.5H16.5V13.5Z" fill="white"/>
</clipPath>
</defs>
</svg>
