<svg width="48" height="48" viewBox="0 0 48 48" fill="none" xmlns="http://www.w3.org/2000/svg">
<path d="M36 0C42.6274 0 48 5.37258 48 12V36C48 42.6274 42.6274 48 36 48H12C5.37258 48 0 42.6274 0 36V12C0 5.37258 5.37258 0 12 0H36Z" fill="url(#paint0_linear_90_3294)"/>
<path d="M36 0C42.6274 0 48 5.37258 48 12V36C48 42.6274 42.6274 48 36 48H12C5.37258 48 0 42.6274 0 36V12C0 5.37258 5.37258 0 12 0H36Z" stroke="#E5E7EB"/>
<path d="M35.25 38H12.75V10H35.25V38Z" stroke="#E5E7EB"/>
<g clip-path="url(#clip0_90_3294)">
<path d="M15.25 14.75C13.8711 14.75 12.75 15.8711 12.75 17.25V18.5H35.25V17.25C35.25 15.8711 34.1289 14.75 32.75 14.75H15.25ZM35.25 22.25H12.75V29.75C12.75 31.1289 13.8711 32.25 15.25 32.25H32.75C34.1289 32.25 35.25 31.1289 35.25 29.75V22.25ZM17.125 27.25H19.625C19.9688 27.25 20.25 27.5312 20.25 27.875C20.25 28.2188 19.9688 28.5 19.625 28.5H17.125C16.7812 28.5 16.5 28.2188 16.5 27.875C16.5 27.5312 16.7812 27.25 17.125 27.25ZM21.5 27.875C21.5 27.5312 21.7812 27.25 22.125 27.25H27.125C27.4688 27.25 27.75 27.5312 27.75 27.875C27.75 28.2188 27.4688 28.5 27.125 28.5H22.125C21.7812 28.5 21.5 28.2188 21.5 27.875Z" fill="#2563EB"/>
</g>
<defs>
<linearGradient id="paint0_linear_90_3294" x1="-16.9706" y1="16.9706" x2="16.9706" y2="50.9117" gradientUnits="userSpaceOnUse">
<stop stop-color="#2563EB" stop-opacity="0.1"/>
<stop offset="1" stop-color="#DBEAFE"/>
</linearGradient>
<clipPath id="clip0_90_3294">
<path d="M12.75 13.5H35.25V33.5H12.75V13.5Z" fill="white"/>
</clipPath>
</defs>
</svg>
