<svg width="86" height="86" viewBox="0 0 86 86" fill="none" xmlns="http://www.w3.org/2000/svg">
<g filter="url(#filter0_dd_52_271)">
<path d="M15 17C15 10.3726 20.3726 5 27 5H59C65.6274 5 71 10.3726 71 17V49C71 55.6274 65.6274 61 59 61H27C20.3726 61 15 55.6274 15 49V17Z" fill="url(#paint0_linear_52_271)"/>
<path d="M55 49H31V17H55V49Z" stroke="#E5E7EB"/>
<g clip-path="url(#clip0_52_271)">
<path d="M31 39.5C31 40.3297 31.6703 41 32.5 41H35.0641C35.6406 42.3266 36.9625 43.25 38.5 43.25C40.0375 43.25 41.3594 42.3266 41.9359 41H53.5C54.3297 41 55 40.3297 55 39.5C55 38.6703 54.3297 38 53.5 38H41.9359C41.3594 36.6734 40.0375 35.75 38.5 35.75C36.9625 35.75 35.6406 36.6734 35.0641 38H32.5C31.6703 38 31 38.6703 31 39.5ZM37 39.5C37 39.1022 37.158 38.7206 37.4393 38.4393C37.7206 38.158 38.1022 38 38.5 38C38.8978 38 39.2794 38.158 39.5607 38.4393C39.842 38.7206 40 39.1022 40 39.5C40 39.8978 39.842 40.2794 39.5607 40.5607C39.2794 40.842 38.8978 41 38.5 41C38.1022 41 37.7206 40.842 37.4393 40.5607C37.158 40.2794 37 39.8978 37 39.5ZM46 32C46 31.6022 46.158 31.2206 46.4393 30.9393C46.7206 30.658 47.1022 30.5 47.5 30.5C47.8978 30.5 48.2794 30.658 48.5607 30.9393C48.842 31.2206 49 31.6022 49 32C49 32.3978 48.842 32.7794 48.5607 33.0607C48.2794 33.342 47.8978 33.5 47.5 33.5C47.1022 33.5 46.7206 33.342 46.4393 33.0607C46.158 32.7794 46 32.3978 46 32ZM47.5 28.25C45.9625 28.25 44.6406 29.1734 44.0641 30.5H32.5C31.6703 30.5 31 31.1703 31 32C31 32.8297 31.6703 33.5 32.5 33.5H44.0641C44.6406 34.8266 45.9625 35.75 47.5 35.75C49.0375 35.75 50.3594 34.8266 50.9359 33.5H53.5C54.3297 33.5 55 32.8297 55 32C55 31.1703 54.3297 30.5 53.5 30.5H50.9359C50.3594 29.1734 49.0375 28.25 47.5 28.25ZM40 26C39.6022 26 39.2206 25.842 38.9393 25.5607C38.658 25.2794 38.5 24.8978 38.5 24.5C38.5 24.1022 38.658 23.7206 38.9393 23.4393C39.2206 23.158 39.6022 23 40 23C40.3978 23 40.7794 23.158 41.0607 23.4393C41.342 23.7206 41.5 24.1022 41.5 24.5C41.5 24.8978 41.342 25.2794 41.0607 25.5607C40.7794 25.842 40.3978 26 40 26ZM43.4359 23C42.8594 21.6734 41.5375 20.75 40 20.75C38.4625 20.75 37.1406 21.6734 36.5641 23H32.5C31.6703 23 31 23.6703 31 24.5C31 25.3297 31.6703 26 32.5 26H36.5641C37.1406 27.3266 38.4625 28.25 40 28.25C41.5375 28.25 42.8594 27.3266 43.4359 26H53.5C54.3297 26 55 25.3297 55 24.5C55 23.6703 54.3297 23 53.5 23H43.4359Z" fill="white"/>
</g>
</g>
<defs>
<filter id="filter0_dd_52_271" x="0" y="0" width="86" height="86" filterUnits="userSpaceOnUse" color-interpolation-filters="sRGB">
<feFlood flood-opacity="0" result="BackgroundImageFix"/>
<feColorMatrix in="SourceAlpha" type="matrix" values="0 0 0 0 0 0 0 0 0 0 0 0 0 0 0 0 0 0 127 0" result="hardAlpha"/>
<feOffset dy="10"/>
<feGaussianBlur stdDeviation="7.5"/>
<feColorMatrix type="matrix" values="0 0 0 0 0.658824 0 0 0 0 0.333333 0 0 0 0 0.968627 0 0 0 0.25 0"/>
<feBlend mode="normal" in2="BackgroundImageFix" result="effect1_dropShadow_52_271"/>
<feColorMatrix in="SourceAlpha" type="matrix" values="0 0 0 0 0 0 0 0 0 0 0 0 0 0 0 0 0 0 127 0" result="hardAlpha"/>
<feOffset dy="4"/>
<feGaussianBlur stdDeviation="3"/>
<feColorMatrix type="matrix" values="0 0 0 0 0.658824 0 0 0 0 0.333333 0 0 0 0 0.968627 0 0 0 0.25 0"/>
<feBlend mode="normal" in2="effect1_dropShadow_52_271" result="effect2_dropShadow_52_271"/>
<feBlend mode="normal" in="SourceGraphic" in2="effect2_dropShadow_52_271" result="shape"/>
</filter>
<linearGradient id="paint0_linear_52_271" x1="-4.79899" y1="24.799" x2="34.799" y2="64.397" gradientUnits="userSpaceOnUse">
<stop stop-color="#A855F7"/>
<stop offset="1" stop-color="#9333EA"/>
</linearGradient>
<clipPath id="clip0_52_271">
<path d="M31 20H55V44H31V20Z" fill="white"/>
</clipPath>
</defs>
</svg>
