<svg width="48" height="48" viewBox="0 0 48 48" fill="none" xmlns="http://www.w3.org/2000/svg">
<path d="M36 0C42.6274 0 48 5.37258 48 12V36C48 42.6274 42.6274 48 36 48H12C5.37258 48 0 42.6274 0 36V12C0 5.37258 5.37258 0 12 0H36Z" fill="url(#paint0_linear_90_3228)"/>
<path d="M36 0C42.6274 0 48 5.37258 48 12V36C48 42.6274 42.6274 48 36 48H12C5.37258 48 0 42.6274 0 36V12C0 5.37258 5.37258 0 12 0H36Z" stroke="#E5E7EB"/>
<path d="M35.25 38H12.75V10H35.25V38Z" stroke="#E5E7EB"/>
<g clip-path="url(#clip0_90_3228)">
<path d="M25.1287 14.2031C24.9216 13.7734 24.4841 13.5 24.0037 13.5C23.5232 13.5 23.0896 13.7734 22.8787 14.2031L20.367 19.3711L14.7576 20.1992C14.2888 20.2695 13.8982 20.5977 13.7537 21.0469C13.6091 21.4961 13.7263 21.9922 14.0623 22.3242L18.1326 26.3516L17.1716 32.043C17.0935 32.5117 17.2888 32.9883 17.6755 33.2656C18.0623 33.543 18.574 33.5781 18.9959 33.3555L24.0076 30.6797L29.0193 33.3555C29.4412 33.5781 29.9529 33.5469 30.3396 33.2656C30.7263 32.9844 30.9216 32.5117 30.8435 32.043L29.8787 26.3516L33.949 22.3242C34.2849 21.9922 34.406 21.4961 34.2576 21.0469C34.1091 20.5977 33.7224 20.2695 33.2537 20.1992L27.6404 19.3711L25.1287 14.2031Z" fill="#2563EB"/>
</g>
<defs>
<linearGradient id="paint0_linear_90_3228" x1="-16.9706" y1="16.9706" x2="16.9706" y2="50.9117" gradientUnits="userSpaceOnUse">
<stop stop-color="#2563EB" stop-opacity="0.1"/>
<stop offset="1" stop-color="#DBEAFE"/>
</linearGradient>
<clipPath id="clip0_90_3228">
<path d="M12.75 13.5H35.25V33.5H12.75V13.5Z" fill="white"/>
</clipPath>
</defs>
</svg>
