<svg width="40" height="40" viewBox="0 0 40 40" fill="none" xmlns="http://www.w3.org/2000/svg">
<path d="M32 0C36.4183 0 40 3.58172 40 8V32C40 36.4183 36.4183 40 32 40H8C3.58172 40 0 36.4183 0 32V8C0 3.58172 3.58172 0 8 0H32Z" fill="#D1FAE5"/>
<path d="M32 0C36.4183 0 40 3.58172 40 8V32C40 36.4183 36.4183 40 32 40H8C3.58172 40 0 36.4183 0 32V8C0 3.58172 3.58172 0 8 0H32Z" stroke="#E5E7EB"/>
<path d="M26.75 34H13.25V6H26.75V34Z" stroke="#E5E7EB"/>
<g clip-path="url(#clip0_52_317)">
<path d="M14.9375 10.25C14.0059 10.25 13.25 11.0059 13.25 11.9375V26.5625C13.25 27.4941 14.0059 28.25 14.9375 28.25H18.3125V25.4375C18.3125 24.5059 19.0684 23.75 20 23.75C20.9316 23.75 21.6875 24.5059 21.6875 25.4375V28.25H25.0625C25.9941 28.25 26.75 27.4941 26.75 26.5625V11.9375C26.75 11.0059 25.9941 10.25 25.0625 10.25H14.9375ZM15.5 18.6875C15.5 18.3781 15.7531 18.125 16.0625 18.125H17.1875C17.4969 18.125 17.75 18.3781 17.75 18.6875V19.8125C17.75 20.1219 17.4969 20.375 17.1875 20.375H16.0625C15.7531 20.375 15.5 20.1219 15.5 19.8125V18.6875ZM19.4375 18.125H20.5625C20.8719 18.125 21.125 18.3781 21.125 18.6875V19.8125C21.125 20.1219 20.8719 20.375 20.5625 20.375H19.4375C19.1281 20.375 18.875 20.1219 18.875 19.8125V18.6875C18.875 18.3781 19.1281 18.125 19.4375 18.125ZM22.25 18.6875C22.25 18.3781 22.5031 18.125 22.8125 18.125H23.9375C24.2469 18.125 24.5 18.3781 24.5 18.6875V19.8125C24.5 20.1219 24.2469 20.375 23.9375 20.375H22.8125C22.5031 20.375 22.25 20.1219 22.25 19.8125V18.6875ZM16.0625 13.625H17.1875C17.4969 13.625 17.75 13.8781 17.75 14.1875V15.3125C17.75 15.6219 17.4969 15.875 17.1875 15.875H16.0625C15.7531 15.875 15.5 15.6219 15.5 15.3125V14.1875C15.5 13.8781 15.7531 13.625 16.0625 13.625ZM18.875 14.1875C18.875 13.8781 19.1281 13.625 19.4375 13.625H20.5625C20.8719 13.625 21.125 13.8781 21.125 14.1875V15.3125C21.125 15.6219 20.8719 15.875 20.5625 15.875H19.4375C19.1281 15.875 18.875 15.6219 18.875 15.3125V14.1875ZM22.8125 13.625H23.9375C24.2469 13.625 24.5 13.8781 24.5 14.1875V15.3125C24.5 15.6219 24.2469 15.875 23.9375 15.875H22.8125C22.5031 15.875 22.25 15.6219 22.25 15.3125V14.1875C22.25 13.8781 22.5031 13.625 22.8125 13.625Z" fill="#059669"/>
</g>
<defs>
<clipPath id="clip0_52_317">
<path d="M13.25 10.25H26.75V28.25H13.25V10.25Z" fill="white"/>
</clipPath>
</defs>
</svg>
