<svg width="40" height="40" viewBox="0 0 40 40" fill="none" xmlns="http://www.w3.org/2000/svg">
<path d="M32 0C36.4183 0 40 3.58172 40 8V32C40 36.4183 36.4183 40 32 40H8C3.58172 40 0 36.4183 0 32V8C0 3.58172 3.58172 0 8 0H32Z" fill="#FFE4E6"/>
<path d="M32 0C36.4183 0 40 3.58172 40 8V32C40 36.4183 36.4183 40 32 40H8C3.58172 40 0 36.4183 0 32V8C0 3.58172 3.58172 0 8 0H32Z" stroke="#E5E7EB"/>
<path d="M29 34H11V6H29V34Z" stroke="#E5E7EB"/>
<g clip-path="url(#clip0_52_347)">
<path d="M20 11.9375C15.9605 11.9375 12.6875 15.2105 12.6875 19.25V20.6562C12.6875 21.1238 12.3113 21.5 11.8438 21.5C11.3762 21.5 11 21.1238 11 20.6562V19.25C11 14.2789 15.0289 10.25 20 10.25C24.9711 10.25 29 14.2789 29 19.25V24.316C29 26.0246 27.6148 27.4098 25.9027 27.4098L22.025 27.4062C21.7332 27.909 21.1883 28.25 20.5625 28.25H19.4375C18.5059 28.25 17.75 27.4941 17.75 26.5625C17.75 25.6309 18.5059 24.875 19.4375 24.875H20.5625C21.1883 24.875 21.7332 25.216 22.025 25.7188L25.9062 25.7223C26.6832 25.7223 27.3125 25.093 27.3125 24.316V19.25C27.3125 15.2105 24.0395 11.9375 20 11.9375ZM16.0625 17.5625H16.625C17.2473 17.5625 17.75 18.0652 17.75 18.6875V22.625C17.75 23.2473 17.2473 23.75 16.625 23.75H16.0625C14.8215 23.75 13.8125 22.741 13.8125 21.5V19.8125C13.8125 18.5715 14.8215 17.5625 16.0625 17.5625ZM23.9375 17.5625C25.1785 17.5625 26.1875 18.5715 26.1875 19.8125V21.5C26.1875 22.741 25.1785 23.75 23.9375 23.75H23.375C22.7527 23.75 22.25 23.2473 22.25 22.625V18.6875C22.25 18.0652 22.7527 17.5625 23.375 17.5625H23.9375Z" fill="#E11D48"/>
</g>
<defs>
<clipPath id="clip0_52_347">
<path d="M11 10.25H29V28.25H11V10.25Z" fill="white"/>
</clipPath>
</defs>
</svg>
