<svg width="40" height="40" viewBox="0 0 40 40" fill="none" xmlns="http://www.w3.org/2000/svg">
<path d="M32 0C36.4183 0 40 3.58172 40 8V32C40 36.4183 36.4183 40 32 40H8C3.58172 40 0 36.4183 0 32V8C0 3.58172 3.58172 0 8 0H32Z" fill="#FEF3C7"/>
<path d="M32 0C36.4183 0 40 3.58172 40 8V32C40 36.4183 36.4183 40 32 40H8C3.58172 40 0 36.4183 0 32V8C0 3.58172 3.58172 0 8 0H32Z" stroke="#E5E7EB"/>
<path d="M30.125 34H9.875V6H30.125V34Z" stroke="#E5E7EB"/>
<g clip-path="url(#clip0_52_327)">
<path d="M23.9375 10.25H16.0625C15.1309 10.25 14.3715 11.0164 14.4066 11.9445C14.4137 12.1309 14.4207 12.3172 14.4313 12.5H10.7188C10.2512 12.5 9.875 12.8762 9.875 13.3438C9.875 16.5992 11.0527 18.8633 12.6348 20.3996C14.1922 21.9148 16.0906 22.6777 17.4898 23.0645C18.3125 23.293 18.875 23.9785 18.875 24.6676C18.875 25.4023 18.2773 26 17.5426 26H16.625C16.0027 26 15.5 26.5027 15.5 27.125C15.5 27.7473 16.0027 28.25 16.625 28.25H23.375C23.9973 28.25 24.5 27.7473 24.5 27.125C24.5 26.5027 23.9973 26 23.375 26H22.4574C21.7227 26 21.125 25.4023 21.125 24.6676C21.125 23.9785 21.684 23.2895 22.5102 23.0645C23.9129 22.6777 25.8113 21.9148 27.3687 20.3996C28.9473 18.8633 30.125 16.5992 30.125 13.3438C30.125 12.8762 29.7488 12.5 29.2812 12.5H25.5687C25.5793 12.3172 25.5863 12.1344 25.5934 11.9445C25.6285 11.0164 24.8691 10.25 23.9375 10.25ZM11.5941 14.1875H14.5613C14.8812 17.3551 15.5879 19.4715 16.3859 20.8883C15.5105 20.5016 14.6 19.9566 13.8125 19.1902C12.6875 18.0969 11.7734 16.5184 11.5977 14.1875H11.5941ZM26.191 19.1902C25.4035 19.9566 24.493 20.5016 23.6176 20.8883C24.4156 19.4715 25.1223 17.3551 25.4422 14.1875H28.4094C28.2301 16.5184 27.316 18.0969 26.1945 19.1902H26.191Z" fill="#D97706"/>
</g>
<defs>
<clipPath id="clip0_52_327">
<path d="M9.875 10.25H30.125V28.25H9.875V10.25Z" fill="white"/>
</clipPath>
</defs>
</svg>
