<svg width="40" height="40" viewBox="0 0 40 40" fill="none" xmlns="http://www.w3.org/2000/svg">
<path d="M32 0C36.4183 0 40 3.58172 40 8V32C40 36.4183 36.4183 40 32 40H8C3.58172 40 0 36.4183 0 32V8C0 3.58172 3.58172 0 8 0H32Z" fill="#DBEAFE"/>
<path d="M32 0C36.4183 0 40 3.58172 40 8V32C40 36.4183 36.4183 40 32 40H8C3.58172 40 0 36.4183 0 32V8C0 3.58172 3.58172 0 8 0H32Z" stroke="#E5E7EB"/>
<path d="M29 34H11V6H29V34Z" stroke="#E5E7EB"/>
<g clip-path="url(#clip0_52_307)">
<path d="M13.6367 12.8867L12.4414 11.6914C11.9105 11.1605 11 11.5367 11 12.2855V16.1562C11 16.6238 11.3762 17 11.8438 17H15.7145C16.4668 17 16.843 16.0895 16.3121 15.5586L15.2293 14.4758C16.4492 13.2559 18.1367 12.5 20 12.5C23.7266 12.5 26.75 15.5234 26.75 19.25C26.75 22.9766 23.7266 26 20 26C18.5656 26 17.2367 25.5535 16.1434 24.7906C15.6336 24.4355 14.934 24.5586 14.5754 25.0684C14.2168 25.5781 14.3434 26.2777 14.8531 26.6363C16.3156 27.6523 18.091 28.25 20 28.25C24.9711 28.25 29 24.2211 29 19.25C29 14.2789 24.9711 10.25 20 10.25C17.5145 10.25 15.2645 11.259 13.6367 12.8867ZM20 14.75C19.5324 14.75 19.1562 15.1262 19.1562 15.5938V19.25C19.1562 19.475 19.2441 19.6895 19.4023 19.8477L21.9336 22.3789C22.2641 22.7094 22.7984 22.7094 23.1254 22.3789C23.4523 22.0484 23.4559 21.5141 23.1254 21.1871L20.8402 18.902V15.5938C20.8402 15.1262 20.4641 14.75 19.9965 14.75H20Z" fill="#2563EB"/>
</g>
<defs>
<clipPath id="clip0_52_307">
<path d="M11 10.25H29V28.25H11V10.25Z" fill="white"/>
</clipPath>
</defs>
</svg>
